<svg xmlns="http://www.w3.org/2000/svg" width="290" height="300" viewBox="0 0 290 300" fill="none">
<g clip-path="url(#clip0_2696_89878)">
<path d="M187.469 233.531L141.918 282.918C127.506 298.544 101.433 290.863 97.8002 269.915L86.3128 203.719L25.2726 175.657C5.96099 166.777 5.20722 139.611 24.0062 129.677L83.4107 98.2973L91.2349 31.5737C93.7072 10.4606 119.32 1.35509 134.569 16.1591L182.773 62.9531L248.652 49.7772C269.494 45.6089 286.069 67.144 276.7 86.2295L247.092 146.539L279.986 205.121C290.396 223.657 275.026 246.074 253.989 243.066L187.484 233.539L187.469 233.531Z" fill="#F2F3F5"/>
<path d="M200.863 158.171C208.356 149.043 210.708 141.859 210.708 141.859C210.708 141.859 222.685 150.709 236.238 152.186C236.238 152.186 235.039 160.447 226.929 170.503C211.446 165.807 200.871 158.171 200.871 158.171H200.863Z" fill="white"/>
<path d="M77.8106 123.31C66.4136 120.355 49.8684 123.822 49.8684 123.822C49.8684 123.822 52.386 142.742 45.6699 158.865C45.6699 158.865 64.1297 157.237 75.5267 160.191C79.8307 139.908 77.8106 123.317 77.8106 123.317V123.31Z" fill="white"/>
<path d="M71.5841 119.59C60.6921 115.128 43.8303 116.326 43.8303 116.326C43.8303 116.326 43.7775 135.411 34.9434 150.479C34.9434 150.479 46.5514 151.03 56.7951 153.472L59.765 152.831C59.765 152.831 66.6921 148.617 67.1594 146.937C71.4182 131.492 71.5841 119.59 71.5841 119.59Z" fill="#D1D5DB"/>
<path d="M56.7946 153.48C56.7946 153.48 62.3273 152.011 60.8801 148.468C60.8801 148.468 62.8248 147.594 67.1514 146.945C67.1514 146.945 63.1338 153.548 56.7871 153.48H56.7946Z" fill="#9AA2AF"/>
<path d="M171.738 84.5329C180.859 78.9174 196.175 77.5078 196.175 77.5078C196.175 77.5078 199.04 94.641 209.193 106.86C209.193 106.86 198.851 109.068 190.017 112.777L187.258 112.641C187.258 112.641 180.414 109.882 179.751 108.442C173.645 95.1988 171.738 84.5405 171.738 84.5405V84.5329Z" fill="white"/>
<path d="M190.016 112.775C190.016 112.775 184.83 112.27 185.607 108.878C185.607 108.878 183.73 108.381 179.75 108.434C179.75 108.434 184.333 113.77 190.016 112.775Z" fill="#D1D5DB"/>
<path d="M175.528 72.2046C181.789 72.2046 186.865 67.129 186.865 60.8679C186.865 54.6069 181.789 49.5312 175.528 49.5312C169.267 49.5312 164.191 54.6069 164.191 60.8679C164.191 67.129 169.267 72.2046 175.528 72.2046Z" fill="white"/>
<path d="" fill="#F5AC66"/>
<path/>
<g opacity="0.32">
<path opacity="0.32" d="M225.564 0.429688L271.552 45.0227C269.833 20.7211 250.062 1.40959 225.564 0.429688Z" fill="#F5AC66"/>
<path opacity="0.32" d="M178.258 32.4763C176.494 37.4738 175.529 42.8481 175.529 48.4486C175.529 52.6924 176.087 56.8079 177.12 60.7275L212.758 95.2803C216.248 96.0868 219.881 96.524 223.612 96.524C229.213 96.524 234.587 95.5592 239.585 93.7954L203.117 57.328L178.258 32.4688V32.4763Z" fill="#F5AC66"/>
<path opacity="0.32" d="M183.082 22.6123L250.703 88.1826C251.72 87.4892 252.708 86.7505 253.665 85.9816L186.097 18.4062C185.019 19.748 184.017 21.1575 183.082 22.6123Z" fill="#F5AC66"/>
</g>
<path d="" fill="white"/>

<path d="" fill="white"/>
<path d="M256.809 61.8438L243.912 80.2809L248.472 80.8764L257.872 67.4518C259.146 65.6352 258.709 63.095 256.854 61.8739C256.832 61.8588 256.817 61.8513 256.817 61.8513L256.809 61.8438Z" fill="white"/>
<path d="M263.91 62.8828L249.068 79.7974L252.355 83.5361L264.347 68.5738C265.817 66.9079 265.651 64.3376 263.948 62.913C263.925 62.8979 263.918 62.8904 263.91 62.8828Z" fill="white"/>
<path d="M265.584 66.8828L250.742 83.7974L255.212 84.8904L266.021 72.5738C267.491 70.9079 267.325 68.3376 265.622 66.913C265.599 66.8979 265.591 66.8904 265.584 66.8828Z" fill="white"/>
<path d="M266.148 74.2435C266.148 74.2435 266.118 74.2133 266.111 74.2133L256.334 84.1782L247.779 78.0877L242.759 81.148C242.676 81.2158 242.593 81.2912 242.518 81.3741L236.834 74.8163C235.764 73.5802 234.151 72.9621 232.53 73.1505L232.093 73.2033C231.385 73.2862 230.978 74.055 231.317 74.6882L238.342 87.7209L233.917 95.8766L240.95 105.382L243.709 101.937L244.696 101.756C246.256 101.477 247.658 100.64 248.653 99.4043L266.224 79.9194C267.784 78.3364 267.762 75.7586 266.141 74.251L266.148 74.2435Z" fill="white"/>
<path d="M252.799 81.83C252.708 81.83 252.618 81.7999 252.55 81.7396C252.392 81.6039 252.377 81.3627 252.512 81.2044L262.944 69.3175C263.08 69.1592 263.321 69.1441 263.48 69.2798C263.638 69.4155 263.653 69.6567 263.517 69.815L253.085 81.7019C253.01 81.7848 252.904 81.83 252.799 81.83Z" fill="#676F7C"/>
<path d="M233.916 96.2523C233.856 96.2523 233.796 96.2372 233.736 96.207C233.555 96.1091 233.487 95.8829 233.585 95.6945L238.055 87.4482L230.984 74.8678C230.766 74.4533 230.766 73.9633 230.984 73.5563C231.203 73.1492 231.595 72.8704 232.055 72.8176L232.492 72.7648C234.233 72.5538 235.974 73.2246 237.12 74.5588L242.577 80.8678C243.406 80.3553 245.841 79.1493 248.524 80.5965C248.705 80.6945 248.773 80.9206 248.675 81.109C248.577 81.29 248.351 81.3578 248.163 81.2598C245.336 79.7372 242.758 81.6442 242.728 81.6668C242.57 81.7874 242.344 81.7648 242.215 81.6141L236.54 75.0563C235.552 73.9181 234.067 73.3377 232.567 73.5186L232.13 73.5714C231.919 73.594 231.738 73.7221 231.64 73.9106C231.542 74.099 231.542 74.3176 231.64 74.506L238.808 87.2598C238.869 87.3729 238.876 87.5085 238.808 87.6216L234.241 96.0487C234.173 96.1769 234.045 96.2447 233.909 96.2447L233.916 96.2523Z" fill="#676F7C"/>
<path d="M242.863 102.982L235.785 92.4219L205.438 129.831L179.328 121.382C172.476 119.166 165.481 117.439 158.388 116.226L146.825 114.243L110.064 119.897L104.252 123.326C96.6544 127.811 89.6594 133.254 83.4408 139.517L56.976 166.171L25.7624 138.862L16.4609 149.399L49.0916 185.995C53.6519 191.105 61.4157 191.754 66.7599 187.465L79.4383 177.281L95.4785 164.399C95.4785 164.399 104.931 170.995 116.878 202.058C123.247 218.618 121.295 234.108 120.134 239.716L119.901 239.731L108.692 286.774C118.536 293.362 132.647 292.977 141.926 282.914L187.476 233.527L190.514 233.965L177.76 213.017C169.612 194.196 170.75 165.907 168.956 150.492L201.059 151.133C208.295 151.276 215.079 147.598 218.908 141.455L242.878 102.982H242.863Z" fill="#B3B9C3"/>
<path d="M134.946 115.464L110.057 124.539V86.6172L128.539 89.7906L134.946 115.464Z" fill="white"/>
<path d="M146.471 88.8825C146.471 88.8825 145.589 102.089 150.481 112.008H134.079L128.252 101.395L146.471 88.875V88.8825Z" fill="#BE5E00"/>
<path d="M99.5868 107.679C107.305 104.476 104.539 111.29 110.057 108.659V86.6189L132.104 52.6239C132.104 52.6239 127.951 45.7118 116.238 49.6842C104.562 53.6415 81.6018 65.0158 92.5013 107.679C92.5013 107.679 95.5767 109.337 99.5792 107.679H99.5868Z" fill="#34383E"/>
<path d="M145.596 100.126C147.066 99.4626 148.822 99.146 148.822 99.146C152.538 70.0355 144.729 53.4978 135.85 51.1913C128.93 49.3898 126.111 54.1084 126.111 54.1084L127.491 106.51C131.327 106.42 133.672 105.742 135.722 104.912C142.732 102.078 140.214 102.553 145.589 100.118L145.596 100.126Z" fill="#676F7C"/>
<path d="M116.871 99.0428L117.384 101.817C117.384 101.817 122.034 112.309 133.695 110.44L130.838 98.2891L116.871 99.0428Z" fill="#9AA2AF"/>
<path d="M108.384 86.6189C111.152 86.6189 113.396 84.3747 113.396 81.6063C113.396 78.8379 111.152 76.5938 108.384 76.5938C105.615 76.5938 103.371 78.8379 103.371 81.6063C103.371 84.3747 105.615 86.6189 108.384 86.6189Z" fill="white"/>
<path d="M111.194 84.3599C111.013 84.3599 110.847 84.2243 110.825 84.0358L110.5 81.7971C110.274 80.2293 108.805 79.1363 107.244 79.37C107.041 79.3926 106.845 79.2569 106.815 79.0534C106.784 78.8499 106.928 78.6539 107.131 78.6237C109.106 78.3373 110.953 79.7092 111.247 81.6916L111.571 83.9303C111.601 84.1338 111.458 84.3298 111.254 84.3599C111.239 84.3599 111.217 84.3599 111.202 84.3599H111.194Z" fill="#676F7C"/>
<path d="M110.871 82.1186C110.871 82.1186 110.848 82.1186 110.833 82.1186L107.275 81.802C107.064 81.7869 106.913 81.5985 106.936 81.395C106.958 81.1839 107.132 81.0407 107.343 81.0558L110.901 81.3724C111.112 81.3874 111.262 81.5759 111.24 81.7794C111.225 81.9754 111.059 82.1261 110.863 82.1261L110.871 82.1186Z" fill="#676F7C"/>
<path d="M143.087 73.7043C142.846 72.1214 142.702 70.5385 142.521 68.9556C141.64 61.3953 135.217 55.5234 127.416 55.5234C119.614 55.5234 113.192 61.3953 112.31 68.9556C112.13 70.5461 111.986 72.129 111.745 73.7043C111.112 77.8727 110.057 85.2521 110.057 88.0863C110.057 97.6742 117.828 105.446 127.416 105.446C137.004 105.446 144.775 97.6742 144.775 88.0863C144.775 85.2596 143.72 77.8727 143.087 73.7043Z" fill="white"/>
<path d="M131.275 62.1334C131.275 62.1334 137.622 71.0053 143.773 69.9425C149.924 68.8872 138.512 55.5078 138.512 55.5078H132.836L131.275 62.1259V62.1334Z" fill="#676F7C"/>
<path d="M133.604 88.4863C133.483 88.4863 133.37 88.4335 133.295 88.328C133.174 88.1546 133.212 87.9209 133.385 87.8003L135.27 86.4586C136.272 85.7425 136.74 84.4988 136.453 83.2928L134.109 74.7149C134.056 74.5114 134.169 74.3079 134.373 74.2551C134.576 74.2023 134.78 74.3154 134.833 74.5189L137.184 83.1044C137.546 84.6194 136.966 86.1722 135.707 87.0692L133.822 88.4109C133.755 88.4561 133.679 88.4787 133.604 88.4787V88.4863Z" fill="#676F7C"/>
<path d="M133.582 94.7724C127.085 94.7724 126.022 89.9106 126.014 89.8654C125.977 89.6618 126.105 89.4659 126.308 89.4206C126.512 89.3829 126.708 89.5111 126.753 89.7146C126.791 89.888 127.718 94.0186 133.582 94.0186H133.605C133.816 94.0186 133.982 94.1844 133.982 94.3955C133.982 94.6141 133.793 94.7648 133.582 94.7724Z" fill="#676F7C"/>
<path d="M128.252 79.0939C129.434 79.0939 130.393 78.1355 130.393 76.9532C130.393 75.7709 129.434 74.8125 128.252 74.8125C127.07 74.8125 126.111 75.7709 126.111 76.9532C126.111 78.1355 127.07 79.0939 128.252 79.0939Z" fill="#676F7C"/>
<path d="M139.379 79.0939C140.561 79.0939 141.52 78.1355 141.52 76.9532C141.52 75.7709 140.561 74.8125 139.379 74.8125C138.197 74.8125 137.238 75.7709 137.238 76.9532C137.238 78.1355 138.197 79.0939 139.379 79.0939Z" fill="#676F7C"/>
<path d="M128.93 73.7104H126.375C125.546 73.7104 124.867 73.032 124.867 72.2029C124.867 71.3737 125.546 70.6953 126.375 70.6953H128.93C129.759 70.6953 130.438 71.3737 130.438 72.2029C130.438 73.032 129.759 73.7104 128.93 73.7104Z" fill="#676F7C"/>
<path d="M139.793 70.9838H137.238C136.409 70.9838 135.73 70.3054 135.73 69.4763C135.73 68.6471 136.409 67.9688 137.238 67.9688H139.793C140.622 67.9688 141.301 68.6471 141.301 69.4763C141.301 70.3054 140.622 70.9838 139.793 70.9838Z" fill="#676F7C"/>
<path d="M100.981 159.977L95.4707 164.401C95.4707 164.401 104.923 170.997 116.87 202.059C123.24 218.62 121.287 234.11 120.126 239.718L119.893 239.733L108.684 286.776C144.669 194.265 111.119 168.856 100.981 159.977Z" fill="#9AA2AF"/>
<path d="M168.949 150.492L163.258 133.992L193.725 150.982L168.949 150.492Z" fill="#9AA2AF"/>
<path d="M177.746 213.397C177.595 213.397 177.46 213.306 177.399 213.163C171.369 198.208 170.691 183.042 170.095 169.67C169.304 151.949 168.625 136.64 156.264 126.819C156.098 126.691 156.075 126.449 156.203 126.291C156.332 126.125 156.573 126.103 156.731 126.231C169.357 136.271 170.05 151.731 170.849 169.64C171.445 182.959 172.115 198.05 178.1 212.884C178.176 213.08 178.085 213.299 177.889 213.374C177.844 213.389 177.799 213.404 177.746 213.404V213.397Z" fill="#676F7C"/>
<path d="M120.119 240.088C120.119 240.088 120.067 240.088 120.044 240.081C119.84 240.036 119.712 239.84 119.75 239.636C120.67 235.219 123.157 219.458 116.516 202.189C104.773 171.654 95.3505 164.772 95.2525 164.704C95.0791 164.583 95.0414 164.35 95.162 164.176C95.2826 164.003 95.5163 163.965 95.6897 164.086C96.0816 164.357 105.368 171.096 117.225 201.918C123.941 219.382 121.423 235.317 120.496 239.787C120.459 239.968 120.3 240.088 120.127 240.088H120.119Z" fill="#676F7C"/>
<path d="M68.8626 186.133C68.7495 186.133 68.644 186.088 68.5686 185.99C68.4405 185.824 68.4631 185.591 68.6289 185.462L100.739 159.676C100.905 159.548 101.139 159.571 101.267 159.736C101.395 159.902 101.373 160.136 101.207 160.264L69.0962 186.05C69.0284 186.103 68.9455 186.133 68.8626 186.133Z" fill="#676F7C"/>
<path d="M110.404 83.9916C110.404 83.9916 110.367 83.9916 110.344 83.9916C110.141 83.9615 109.997 83.7655 110.027 83.562C111.249 75.655 110.51 72.2102 110.502 72.1801C110.457 71.9766 110.585 71.7731 110.789 71.7278C110.985 71.6826 111.196 71.8107 111.241 72.0143C111.271 72.1575 112.017 75.6022 110.774 83.6826C110.744 83.871 110.585 83.9992 110.404 83.9992V83.9916Z" fill="#34383E"/>
<path d="M110.057 120.279C109.846 120.279 109.68 120.113 109.68 119.902L109.695 88.8847C109.695 88.6736 109.861 88.5078 110.072 88.5078C110.283 88.5078 110.449 88.6736 110.449 88.8847L110.433 119.902C110.433 120.113 110.268 120.279 110.057 120.279Z" fill="#676F7C"/>
<path d="M211.28 188.13L208.219 189.743C207.247 190.256 206.116 189.426 206.305 188.349L206.893 184.942L204.413 182.529C203.629 181.768 204.058 180.434 205.144 180.276L208.566 179.778L210.096 176.68C210.579 175.7 211.981 175.7 212.463 176.68L213.993 179.778L217.415 180.276C218.501 180.434 218.93 181.761 218.146 182.529L215.667 184.942L216.254 188.349C216.443 189.426 215.305 190.248 214.34 189.743L211.28 188.13Z" fill="white"/>
<path d="M35.0413 102.299L29.4332 103.837C27.6619 104.327 26.094 102.563 26.7875 100.859L28.9734 95.47L25.7775 90.6157C24.7674 89.078 25.9584 87.0504 27.79 87.1785L33.5865 87.5931L37.2197 83.0554C38.3654 81.6157 40.6644 82.1207 41.1091 83.9072L42.5036 89.5529L47.9458 91.6032C49.6644 92.2514 49.8981 94.5956 48.3378 95.568L43.4006 98.6358L43.1292 104.447C43.0463 106.287 40.8905 107.229 39.481 106.045L35.0337 102.299H35.0413Z" fill="#F2F3F5"/>
<path d="M67.0176 78.2109C69.5029 78.2109 71.5176 76.1962 71.5176 73.7109C71.5176 71.2257 69.5029 69.2109 67.0176 69.2109C64.5323 69.2109 62.5176 71.2257 62.5176 73.7109C62.5176 76.1962 64.5323 78.2109 67.0176 78.2109Z" fill="#F2F3F5"/>
<path d="M260.84 151.445C263.325 151.445 265.34 149.431 265.34 146.945C265.34 144.46 263.325 142.445 260.84 142.445C258.355 142.445 256.34 144.46 256.34 146.945C256.34 149.431 258.355 151.445 260.84 151.445Z" fill="#F2F3F5"/>
<path d="M92.2217 53.4318C96.2889 53.4318 99.5861 50.1347 99.5861 46.0674C99.5861 42.0002 96.2889 38.7031 92.2217 38.7031C88.1545 38.7031 84.8574 42.0002 84.8574 46.0674C84.8574 50.1347 88.1545 53.4318 92.2217 53.4318Z" fill="white"/>
<path d="M14.1172 178.742C16.6025 178.742 18.6172 176.727 18.6172 174.242C18.6172 171.757 16.6025 169.742 14.1172 169.742C11.6319 169.742 9.61719 171.757 9.61719 174.242C9.61719 176.727 11.6319 178.742 14.1172 178.742Z" fill="white"/>
<path d="M282.354 115.111C286.013 115.111 288.98 112.144 288.98 108.485C288.98 104.826 286.013 101.859 282.354 101.859C278.695 101.859 275.729 104.826 275.729 108.485C275.729 112.144 278.695 115.111 282.354 115.111Z" fill="#F2F3F5"/>
<path d="M207.579 130.407C206.916 130.407 206.184 130.346 205.37 130.203C205.167 130.165 205.031 129.969 205.069 129.766C205.106 129.562 205.302 129.427 205.506 129.464C209.433 130.173 211.431 128.68 211.446 128.665C211.612 128.537 211.845 128.567 211.973 128.733C212.101 128.899 212.071 129.133 211.905 129.261C211.83 129.321 210.398 130.407 207.571 130.407H207.579Z" fill="#676F7C"/>
<path d="M108.382 91.401C110.197 91.401 111.669 89.9296 111.669 88.1146C111.669 86.2995 110.197 84.8281 108.382 84.8281C106.567 84.8281 105.096 86.2995 105.096 88.1146C105.096 89.9296 106.567 91.401 108.382 91.401Z" fill="#F2F3F5"/>
<path d="M133.973 55.0402C137.327 62.8869 131.636 72.7236 121.016 74.2387C115.672 75 111.752 77.4422 110.403 83.6156C110.403 83.6156 110.757 77.3744 109.589 76.7487C104.41 73.9824 116.712 54.3618 116.712 54.3618L131.606 54C131.606 54 133.664 54.3392 133.966 55.0402H133.973Z" fill="#34383E"/>
<path d="M111.669 76.0811C111.669 76.0811 111.654 76.0811 111.639 76.0811C111.428 76.066 111.277 75.8851 111.292 75.6816C111.307 75.4328 111.827 69.4705 122.425 67.2243C125.47 66.576 126.978 64.6539 127.709 63.1539C128.84 60.8323 128.923 57.7645 127.913 55.6916C127.822 55.5032 127.898 55.277 128.086 55.1866C128.274 55.0961 128.501 55.1715 128.591 55.36C129.714 57.6665 129.631 60.9303 128.388 63.478C127.581 65.1288 125.923 67.2469 122.576 67.9554C112.573 70.0811 112.038 75.674 112.038 75.7268C112.023 75.9228 111.857 76.0735 111.661 76.0735L111.669 76.0811Z" fill="#676F7C"/>
<path d="M120.33 52.6467L122.501 48.4708C122.501 48.4708 134.704 47.1743 134.478 59.1367L130.83 58.7522L128.772 54.5839L126.111 55.5261L120.33 52.6467Z" fill="#34383E"/>
<path d="M115.144 115.543L107.795 121.234L101.531 124.935C101.531 124.935 137.599 148.724 146.81 114.247L134.071 112.016L115.137 115.551L115.144 115.543Z" fill="white"/>
<path d="M102.142 105.964C102.044 105.964 101.946 105.926 101.878 105.851C101.803 105.775 100.002 103.936 98.7729 100.401C97.6422 97.1524 96.8055 91.7931 99.2402 84.7152C99.3081 84.5192 99.5191 84.4137 99.7226 84.4815C99.9186 84.5494 100.024 84.7604 99.9563 84.9639C95.4337 98.1021 102.346 105.255 102.414 105.323C102.557 105.474 102.557 105.708 102.414 105.858C102.338 105.934 102.248 105.971 102.15 105.971L102.142 105.964Z" fill="#676F7C"/>
<path d="M183.73 214.496C175.959 222.328 211.665 216.968 208.929 236.604L212.592 237.132C214.333 234.788 215.969 232.217 216.308 231.071C221.961 211.956 197.577 200.551 183.73 214.504V214.496Z" fill="white"/>
<path d="M218.26 234.835C218.26 234.835 218.23 234.835 218.223 234.835C218.019 234.813 217.868 234.624 217.891 234.421C217.944 233.946 223.228 187.024 250.514 180.73C259.499 178.657 262.665 182.042 263.743 185.253C267.346 195.994 252.986 220.054 242.343 224.818C242.155 224.901 241.929 224.818 241.846 224.629C241.763 224.441 241.846 224.215 242.034 224.132C252.466 219.466 266.547 195.971 263.034 185.494C261.61 181.258 257.456 179.901 250.687 181.469C223.921 187.642 218.69 234.036 218.645 234.504C218.622 234.7 218.464 234.843 218.268 234.843L218.26 234.835Z" fill="#676F7C"/>
<path d="M230.214 219.928C230.154 219.928 230.094 219.913 230.034 219.882C229.853 219.784 229.785 219.551 229.883 219.37C230.433 218.36 243.413 194.593 254.237 188.232C254.41 188.126 254.644 188.186 254.75 188.367C254.855 188.548 254.795 188.774 254.614 188.88C243.971 195.129 230.674 219.483 230.539 219.724C230.471 219.852 230.343 219.92 230.207 219.92L230.214 219.928Z" fill="#B3B9C3"/>
<path d="M211.922 237.034L225.505 238.978C225.505 238.978 234.218 226.7 242.223 229.293C250.228 231.878 249.64 222.388 249.64 222.388L233.08 219.102L221.465 226.481L211.922 237.034Z" fill="#F5AC66"/>
<path d="M240.572 212.962C228.481 216.957 218.795 226.394 211.303 236.939L213.014 237.188C218.539 230.622 235.74 212.554 243.474 231.972C245.215 236.343 247.009 239.72 248.803 242.321C255.67 252.278 262.514 250.68 266.177 248.343C269.079 246.489 271.099 242.999 272.079 238.869C275.343 225.112 266.969 204.233 240.572 212.969V212.962Z" fill="#6B47F5"/>
<path d="M4.35555 120.399C5.53783 120.399 6.49625 119.44 6.49625 118.258C6.49625 117.076 5.53783 116.117 4.35555 116.117C3.17327 116.117 2.21484 117.076 2.21484 118.258C2.21484 119.44 3.17327 120.399 4.35555 120.399Z" fill="#F2F3F5"/>
<path d="M4.63353 125.88C5.8949 125.88 6.91745 124.858 6.91745 123.596C6.91745 122.335 5.8949 121.312 4.63353 121.312C3.37216 121.312 2.34961 122.335 2.34961 123.596C2.34961 124.858 3.37216 125.88 4.63353 125.88Z" fill="#F2F3F5"/>
<path d="M3.44408 129.88C4.70545 129.88 5.728 128.858 5.728 127.596C5.728 126.335 4.70545 125.312 3.44408 125.312C2.1827 125.312 1.16016 126.335 1.16016 127.596C1.16016 128.858 2.1827 129.88 3.44408 129.88Z" fill="#F2F3F5"/>
<path d="M2.56126 133.646C3.82264 133.646 4.84518 132.623 4.84518 131.362C4.84518 130.101 3.82264 129.078 2.56126 129.078C1.29989 129.078 0.277344 130.101 0.277344 131.362C0.277344 132.623 1.29989 133.646 2.56126 133.646Z" fill="#F2F3F5"/>
<path d="M25.4077 139.182L22.2947 135.579C20.0334 128.75 17.5685 127.559 15.6464 126.285L5.11627 116.523L3.47306 120.285L5.2218 121.905L0.751953 132.699L17.9002 149.93L25.4077 139.182Z" fill="#F2F3F5"/>
<path d="M9.8125 126.716C12.6165 124.469 15.6542 126.286 15.6542 126.286L21.1793 118.319C22.0537 117.052 23.5009 116.306 25.0386 116.329H25.4532C26.1241 116.344 26.5839 117.022 26.3351 117.648L20.9004 134.442L17.7723 138.097L9.8125 126.708V126.716Z" fill="#F2F3F5"/>
<path d="M25.4076 139.561C25.3021 139.561 25.1966 139.516 25.1212 139.433L22.0081 135.83C21.0282 134.7 20.7192 133.117 21.194 131.7L25.9654 117.536C26.0408 117.333 26.0257 117.137 25.9126 116.978C25.8071 116.82 25.6337 116.722 25.4378 116.722H24.9704C23.576 116.722 22.2719 117.401 21.4805 118.546L15.9553 126.514C15.8423 126.672 15.6237 126.725 15.4503 126.619C15.3448 126.559 12.8121 125.097 10.3473 126.785C10.1739 126.906 9.94027 126.86 9.81967 126.687C9.69907 126.514 9.74429 126.28 9.91766 126.159C12.277 124.539 14.6739 125.406 15.5182 125.805L20.8548 118.109C21.8046 116.737 23.395 115.938 25.0307 115.953H25.4453C25.8825 115.961 26.2895 116.187 26.5383 116.549C26.787 116.918 26.8322 117.378 26.6664 117.785L21.9026 131.933C21.5106 133.102 21.7669 134.398 22.5659 135.333L25.679 138.936C25.8146 139.094 25.7996 139.335 25.6413 139.471C25.5734 139.531 25.483 139.561 25.3925 139.561H25.4076Z" fill="#676F7C"/>
<path d="M8.85538 124.03C8.37296 124.03 7.88301 123.924 7.42322 123.706C7.23477 123.615 7.15186 123.389 7.24231 123.201C7.33276 123.012 7.55136 122.929 7.74734 123.02C8.81769 123.525 10.0614 123.246 10.8152 122.364L4.86794 116.794C4.71719 116.651 4.70965 116.417 4.85286 116.259C4.99608 116.108 5.22975 116.1 5.38804 116.243L11.584 122.04C11.7197 122.168 11.7423 122.372 11.6368 122.522C10.9961 123.48 9.94834 124.015 8.86291 124.015L8.85538 124.03Z" fill="#676F7C"/>
<path d="M9.02083 129.423C8.53842 129.423 8.04847 129.317 7.58867 129.099C7.40023 129.008 7.31732 128.782 7.40777 128.594C7.49822 128.405 7.71681 128.322 7.91279 128.413C8.98314 128.918 10.2269 128.639 10.9806 127.757L3.03591 120.317C2.88515 120.174 2.87762 119.94 3.02083 119.782C3.16405 119.631 3.39772 119.624 3.55601 119.767L11.7495 127.433C11.8852 127.561 11.9078 127.764 11.8022 127.915C11.1615 128.872 10.1138 129.408 9.02837 129.408L9.02083 129.423Z" fill="#676F7C"/>
<path d="M7.37881 133.186C6.8964 133.186 6.40645 133.081 5.94665 132.862C5.75821 132.772 5.6753 132.545 5.76575 132.357C5.8562 132.169 6.07479 132.086 6.27077 132.176C7.34113 132.681 8.58485 132.402 9.33861 131.52L3.39138 125.95C3.24062 125.807 3.23309 125.573 3.3763 125.415C3.51952 125.264 3.75319 125.257 3.91148 125.4L10.1075 131.196C10.2431 131.324 10.2657 131.528 10.1602 131.679C9.51952 132.636 8.47178 133.171 7.38635 133.171L7.37881 133.186Z" fill="#676F7C"/>
<path d="M8.19911 135.626C8.10866 135.626 8.01067 135.596 7.94283 135.528L1.74685 129.731C1.59609 129.588 1.58855 129.354 1.73177 129.196C1.87499 129.045 2.10865 129.038 2.26695 129.181L8.46293 134.977C8.61368 135.121 8.62122 135.354 8.478 135.513C8.40263 135.596 8.30464 135.633 8.19911 135.633V135.626Z" fill="#676F7C"/>
<path d="M125.628 116.331C125.628 116.331 93.9475 109.283 99.2013 60.0469C99.2013 60.0469 84.8495 72.0921 86.0631 94.4037C86.8395 108.627 92.6058 110.218 92.2138 115.049C91.8219 119.881 88.2339 128.602 92.5003 129.039C96.7666 129.477 115.121 127.215 115.121 127.215L125.621 116.331H125.628Z" fill="#6B47F5"/>
<path d="M107.637 134C107.637 134 126.549 157.261 127.416 164.987C128.282 172.714 132.684 158.528 136.401 159.116C140.117 159.704 141.293 158.92 141.586 156.379C141.88 153.839 141.293 151.427 143.742 150.04C146.192 148.653 136.86 137.497 133.695 136.133C130.536 134.761 107.644 134 107.644 134H107.637Z" fill="#BE5E00"/>
<path d="M157.514 118.155C157.514 118.155 145.25 142.825 120.338 139.185C95.4262 135.544 98.4715 129.371 92.5695 131.361L89.283 134.082C89.283 134.082 87.2177 128.097 92.5167 125.858C92.5167 125.858 93.0142 123.619 96.7378 122.135C100.461 120.642 102.12 121.471 103.446 119.564C104.773 117.657 104.479 114.514 106.612 114.763C108.745 115.011 122.818 119.15 127.416 115.26C132.014 111.371 132.489 108.966 134.946 109.049C134.946 109.049 136.823 108.137 139.386 108.634C139.386 108.634 141.376 107.474 144.768 107.722C148.16 107.971 148.823 111.047 149.735 110.67C150.647 110.293 153.956 110.76 155.863 112.019C157.77 113.278 158.517 111.951 160.002 112.863C161.494 113.775 162.376 116.979 162.376 116.979C162.376 116.979 158.373 116.232 157.499 118.155H157.514Z" fill="#6B47F5"/>
<path d="M113.909 129.276C111.851 129.276 109.597 128.945 107.185 128.108C95.8033 124.143 92.7581 126.133 92.7279 126.156C92.5621 126.276 92.3284 126.239 92.2003 126.073C92.0797 125.907 92.1099 125.673 92.2757 125.553C92.4038 125.455 95.532 123.254 107.426 127.399C118.205 131.153 125.773 124.339 125.849 124.271C125.999 124.128 126.241 124.143 126.384 124.294C126.527 124.445 126.512 124.686 126.361 124.829C126.301 124.889 121.424 129.291 113.901 129.291L113.909 129.276Z" fill="#BE5E00"/>
<path d="M131.268 133.367C130.514 133.367 130.009 133.314 129.949 133.306C129.746 133.284 129.595 133.095 129.617 132.892C129.64 132.688 129.813 132.537 130.032 132.56C130.077 132.56 134.879 133.08 137.585 130.736C138.753 129.726 139.371 128.301 139.424 126.515C139.643 119.007 145.861 111.221 149.653 110.309C149.856 110.256 150.06 110.384 150.105 110.588C150.15 110.791 150.03 110.995 149.826 111.04C146.736 111.786 140.389 119.007 140.17 126.537C140.11 128.542 139.409 130.148 138.067 131.309C136.009 133.088 132.987 133.374 131.261 133.374L131.268 133.367Z" fill="#BE5E00"/>
<path d="M151.031 115.069C150.926 115.069 150.82 115.024 150.745 114.941C150.609 114.783 150.624 114.549 150.782 114.414C150.903 114.308 153.76 111.873 158.825 112.137C159.036 112.145 159.194 112.326 159.179 112.529C159.172 112.74 159.013 112.921 158.787 112.883C154.031 112.65 151.302 114.956 151.272 114.979C151.204 115.039 151.114 115.069 151.024 115.069H151.031Z" fill="#BE5E00"/>
<path d="M123.949 121.842C122.75 121.842 121.454 121.646 120.037 121.217C112.71 118.963 109.446 119.679 107.494 120.109C107.2 120.177 106.929 120.229 106.68 120.275C106.476 120.312 106.28 120.177 106.243 119.966C106.205 119.762 106.341 119.566 106.552 119.528C106.793 119.483 107.049 119.43 107.336 119.37C109.363 118.925 112.748 118.179 120.263 120.493C128.32 122.973 132.331 117.222 135.549 112.601C136.853 110.732 137.976 109.119 139.19 108.32C139.363 108.207 139.597 108.252 139.71 108.425C139.823 108.599 139.778 108.832 139.604 108.945C138.504 109.669 137.418 111.222 136.167 113.031C133.514 116.845 130.032 121.842 123.956 121.842H123.949Z" fill="#BE5E00"/>
<path d="M122.033 118.186C120.179 118.186 117.842 117.598 114.955 115.864C103.55 109.035 97.6937 112.299 97.6409 112.337C97.46 112.442 97.2339 112.382 97.1284 112.201C97.0229 112.02 97.0832 111.794 97.2565 111.688C97.5053 111.538 103.513 108.138 115.347 115.224C123.736 120.244 126.97 115.269 127.098 115.058C127.211 114.884 127.437 114.824 127.618 114.937C127.792 115.05 127.852 115.276 127.739 115.457C127.716 115.495 125.99 118.186 122.033 118.193V118.186Z" fill="#BE5E00"/>
<path d="M146.078 221.401C122.839 218.243 90.9319 228.999 90.9319 228.999C90.9319 228.999 100.377 265.836 90.8867 299.303C90.8867 299.303 127.022 291.728 150.261 294.886C153.992 253.745 146.085 221.408 146.085 221.408L146.078 221.401Z" fill="#F2F3F5"/>
<path d="M141.104 215.829C119.833 205.955 86.1693 206.799 86.1693 206.799C86.1693 206.799 84.315 244.782 65.3652 273.953C65.3652 273.953 102.127 277.39 123.398 287.264C139.114 249.063 141.104 215.829 141.104 215.829Z" fill="white"/>
<path d="M123.397 287.638C123.344 287.638 123.291 287.622 123.239 287.6C102.276 277.861 65.7035 274.356 65.3342 274.326C65.206 274.311 65.0854 274.236 65.0327 274.115C64.9799 273.994 64.9874 273.859 65.0553 273.746C83.7337 244.989 85.7839 207.158 85.799 206.781C85.8065 206.585 85.9648 206.426 86.1683 206.419C86.5075 206.419 120.163 205.68 141.269 215.487C141.412 215.555 141.495 215.698 141.487 215.849C141.465 216.18 139.309 249.58 123.751 287.404C123.714 287.502 123.638 287.577 123.54 287.615C123.495 287.63 123.45 287.638 123.405 287.638H123.397ZM66.0201 273.632C70.9045 274.137 103.58 277.778 123.201 286.748C137.854 250.944 140.485 219.218 140.711 216.052C120.902 206.969 90.1332 207.105 86.5302 207.158C86.2814 211.055 83.5452 246.263 66.0201 273.625V273.632Z" fill="#676F7C"/>
<path d="M132.645 233.064C132.05 233.064 129.562 233.033 127.083 232.498C123.887 231.812 109.083 229.046 106.49 229.272C105.103 229.4 103.369 228.812 101.696 228.239C100.03 227.674 98.3112 227.079 97.2333 227.358C95.4394 227.817 94.5122 227.109 93.4419 226.287C93.0047 225.948 92.5449 225.601 91.972 225.277C90.163 224.252 87.3062 226.28 87.2761 226.302C87.1102 226.423 86.869 226.385 86.7484 226.219C86.6278 226.053 86.6655 225.812 86.8313 225.692C86.967 225.594 90.1102 223.355 92.3338 224.621C92.9519 224.976 93.4494 225.353 93.8866 225.692C94.9117 226.476 95.5901 226.996 97.0298 226.634C98.3188 226.302 100.068 226.905 101.922 227.538C103.52 228.081 105.163 228.654 106.399 228.533C109.226 228.27 124.814 231.255 127.218 231.767C129.917 232.347 132.721 232.317 132.743 232.317C132.947 232.317 133.12 232.483 133.12 232.687C133.12 232.898 132.954 233.064 132.751 233.071C132.736 233.071 132.691 233.071 132.623 233.071L132.645 233.064Z" fill="#676F7C"/>
<path d="M116.944 220.832C116.567 220.832 116.19 220.772 115.843 220.606C115.421 220.41 115.09 220.199 114.796 220.011C114.125 219.589 113.68 219.31 112.776 219.491C111.909 219.656 110.748 219.317 109.512 218.963C108.457 218.661 107.371 218.337 106.58 218.39C104.71 218.496 94.4892 216.777 92.8385 216.468C91.0671 216.136 89.2354 216.129 89.2128 216.129C89.0018 216.129 88.8359 215.955 88.8359 215.752C88.8359 215.541 89.0018 215.375 89.2128 215.375C89.2731 215.383 91.1123 215.375 92.9741 215.729C95.0847 216.121 104.854 217.727 106.534 217.644C107.454 217.591 108.607 217.923 109.723 218.247C110.816 218.563 111.946 218.895 112.632 218.759C113.831 218.526 114.464 218.918 115.195 219.378C115.489 219.558 115.791 219.747 116.168 219.928C117.328 220.47 119.13 219.438 119.145 219.43C119.326 219.325 119.552 219.385 119.658 219.566C119.763 219.747 119.703 219.973 119.522 220.079C119.454 220.116 118.21 220.832 116.944 220.832Z" fill="#676F7C"/>
<path d="M128.953 255.134C128.953 255.134 128.892 255.134 128.862 255.127C128.787 255.112 121.196 253.28 119.003 253.747C117.691 254.026 115.973 253.363 114.156 252.662C112.581 252.059 110.945 251.441 109.724 251.494C109.664 251.494 109.596 251.494 109.528 251.494C106.234 251.494 91.3773 248.064 89.0557 247.468C86.3874 246.79 83.5834 246.715 83.5608 246.715C83.3497 246.715 83.1914 246.534 83.1914 246.33C83.1914 246.119 83.3497 245.984 83.5758 245.961C83.6964 245.961 86.4854 246.036 89.2366 246.737C92.4025 247.544 107.101 250.868 109.679 250.732C111.073 250.657 112.784 251.313 114.428 251.946C116.063 252.579 117.759 253.235 118.845 252.994C121.204 252.489 128.727 254.298 129.043 254.373C129.247 254.426 129.367 254.629 129.322 254.825C129.277 254.999 129.126 255.112 128.953 255.112V255.134Z" fill="#676F7C"/>
<path d="M122.583 269.358C122.583 269.358 122.522 269.358 122.492 269.343C122.417 269.32 114.841 267.413 112.64 267.918C111.321 268.22 109.603 267.526 107.786 266.788C106.218 266.154 104.605 265.499 103.361 265.566C103.143 265.597 102.977 265.423 102.962 265.212C102.947 265.001 103.105 264.828 103.316 264.813C104.718 264.722 106.422 265.416 108.065 266.087C109.701 266.75 111.389 267.436 112.467 267.187C114.841 266.637 122.356 268.536 122.673 268.612C122.877 268.664 122.997 268.868 122.944 269.071C122.899 269.245 122.748 269.358 122.583 269.358Z" fill="#676F7C"/>
<path d="M120.413 273.679C120.413 273.679 120.352 273.679 120.322 273.664C120.247 273.642 112.671 271.735 110.47 272.24C109.159 272.541 107.433 271.848 105.616 271.109C104.048 270.476 102.428 269.828 101.192 269.888C100.988 269.911 100.807 269.745 100.792 269.534C100.777 269.323 100.935 269.149 101.146 269.134C102.541 269.036 104.252 269.737 105.895 270.408C107.531 271.071 109.219 271.757 110.297 271.509C112.671 270.958 120.186 272.858 120.503 272.933C120.707 272.986 120.827 273.19 120.774 273.393C120.729 273.566 120.578 273.679 120.413 273.679Z" fill="#676F7C"/>
<path d="M130.497 239.015C130.497 239.015 130.429 239.015 130.392 239C129.412 238.729 125.831 238.111 122.666 237.568C120.291 237.161 118.052 236.776 116.99 236.55C114.51 236.03 107.997 235.261 106.264 235.276H106.226C105.171 235.276 103.203 234.719 101.296 234.176C99.9545 233.792 98.6881 233.43 98.1454 233.4C96.8715 233.324 94.271 232.819 92.3037 231.741C90.6153 230.822 86.8539 231.432 86.8163 231.44C86.6127 231.477 86.4168 231.334 86.3791 231.131C86.3414 230.927 86.4846 230.731 86.6881 230.694C86.854 230.663 90.7434 230.03 92.658 231.078C94.5047 232.088 97.0223 232.57 98.1831 232.638C98.8012 232.676 100.052 233.03 101.492 233.445C103.263 233.95 105.261 234.523 106.211 234.523C106.248 234.523 106.279 234.523 106.316 234.523C108.193 234.523 114.66 235.292 117.133 235.812C118.188 236.03 120.419 236.415 122.786 236.822C126.125 237.395 129.57 237.983 130.588 238.269C130.791 238.329 130.904 238.533 130.851 238.736C130.806 238.902 130.655 239.008 130.49 239.008L130.497 239.015Z" fill="#676F7C"/>
<path d="M131.115 243.937C131.115 243.937 131.085 243.937 131.078 243.937C131.047 243.937 128.228 243.628 125.477 243.16C122.274 242.61 107.417 240.168 104.831 239.957C103.52 239.851 101.801 239.49 100.143 239.143C98.3489 238.766 96.6529 238.419 95.5298 238.382C93.9017 238.321 93.0348 238.042 91.9343 237.688C91.4896 237.545 90.9997 237.387 90.3966 237.221C88.4067 236.686 85.5801 236.98 85.5574 236.98C85.3615 237.002 85.1655 236.851 85.1429 236.648C85.1203 236.444 85.271 236.256 85.4745 236.233C85.5951 236.218 88.467 235.917 90.5926 236.49C91.2107 236.655 91.7157 236.821 92.168 236.964C93.2534 237.311 94.0373 237.567 95.5524 237.62C96.7358 237.665 98.462 238.02 100.294 238.397C101.929 238.736 103.625 239.09 104.892 239.196C107.673 239.429 123.201 242 125.598 242.407C128.326 242.874 131.123 243.175 131.153 243.175C131.356 243.198 131.507 243.387 131.485 243.59C131.462 243.786 131.304 243.929 131.108 243.929L131.115 243.937Z" fill="#676F7C"/>
<path d="M128.907 249.555C128.907 249.555 128.839 249.555 128.802 249.539C127.829 249.268 124.241 248.65 121.083 248.107C118.709 247.7 116.47 247.316 115.4 247.09C112.927 246.57 106.392 245.786 104.674 245.816C103.626 245.823 101.636 245.258 99.7063 244.715C98.3646 244.331 97.0983 243.969 96.5556 243.939C95.2817 243.864 92.6812 243.359 90.7139 242.288C89.0254 241.361 85.2641 241.979 85.2264 241.987C85.0229 242.024 84.8269 241.881 84.7892 241.678C84.7515 241.474 84.8948 241.278 85.0983 241.24C85.2641 241.21 89.1536 240.577 91.0681 241.625C92.9073 242.635 95.4324 243.117 96.5933 243.185C97.2113 243.223 98.4626 243.577 99.9023 243.992C101.674 244.497 103.671 245.07 104.621 245.07C104.659 245.07 104.689 245.07 104.726 245.07C106.603 245.07 113.071 245.838 115.543 246.359C116.598 246.577 118.829 246.962 121.196 247.369C124.528 247.941 127.98 248.529 128.99 248.816C129.194 248.876 129.307 249.08 129.254 249.283C129.209 249.449 129.058 249.555 128.892 249.555H128.907Z" fill="#676F7C"/>
</g>
<defs>
<clipPath id="clip0_2696_89878">
<rect width="289.447" height="300" fill="white" transform="translate(0.277344)"/>
</clipPath>
</defs>
</svg>